<?xml version="1.0" encoding="UTF-8" standalone="yes"?><!-- Created with Inkscape (http://www.inkscape.org/) --><svg xmlns:dc="http://purl.org/dc/elements/1.1/" xmlns:cc="http://creativecommons.org/ns#" xmlns:rdf="http://www.w3.org/1999/02/22-rdf-syntax-ns#" xmlns:svg="http://www.w3.org/2000/svg" xmlns="http://www.w3.org/2000/svg" xmlns:sodipodi="http://sodipodi.sourceforge.net/DTD/sodipodi-0.dtd" xmlns:inkscape="http://www.inkscape.org/namespaces/inkscape" width="681.42004" height="681.42004" id="svg2" version="1.1" inkscape:version="0.48.4 r9939" sodipodi:docname="AJAX.svg" style="zoom: 1;"><defs id="defs4"></defs><sodipodi:namedview id="base" pagecolor="#ffffff" bordercolor="#666666" borderopacity="1.0" inkscape:pageopacity="0.0" inkscape:pageshadow="2" inkscape:zoom="0.7" inkscape:cx="428.54375" inkscape:cy="374.77234" inkscape:document-units="px" inkscape:current-layer="layer1" showgrid="false" fit-margin-top="0.1" fit-margin-left="0.1" fit-margin-bottom="0.1" fit-margin-right="0.1" inkscape:window-width="1920" inkscape:window-height="1057" inkscape:window-x="-8" inkscape:window-y="-8" inkscape:window-maximized="1"></sodipodi:namedview><metadata id="metadata7"><rdf:RDF><cc:Work rdf:about=""><dc:format>image/svg+xml</dc:format><dc:type rdf:resource="http://purl.org/dc/dcmitype/StillImage"></dc:type><dc:title></dc:title></cc:Work></rdf:RDF></metadata><g inkscape:label="Layer 1" inkscape:groupmode="layer" id="layer1" transform="translate(89.259451,-81.90191)"><path d="M273.54771,754.06881 c-12.20417,12.20418 -31.99003,12.20416 -44.19419,10e-6 L-80.006402,444.70891 c-12.20396,-12.20396 -12.20417,-31.99001 0,-44.19418 L229.35346,91.154846 c12.20388,-12.20388 31.99021,-12.20395 44.19418,0 L582.90755,400.51479 c12.20419,12.20416 12.2039,31.99028 2e-5,44.19418 " id="path11-1" style="fill:#ffdb00;fill-opacity:1;fill-rule:nonzero;stroke:none" inkscape:connector-curvature="0" sodipodi:nodetypes="sssssssss"></path><path inkscape:connector-curvature="0" style="fill:#000000;fill-rule:nonzero;stroke:none" d="m 577.01503,406.40732 c 8.93529,8.93529 8.93544,23.47368 2e-5,32.4091 l -309.3599,309.35986 c -8.93528,8.93528 -23.47381,8.93528 -32.40909,0 L -74.113852,438.81637 c -8.93543,-8.93543 -8.93529,-23.47383 -1e-5,-32.40911 L 235.246,97.047386 c 8.93542,-8.93542 23.47369,-8.93542 32.40911,0 z" id="path13-7" sodipodi:nodetypes="sssssssss"></path><path d="M568.178528,415.246155 c4.06148,4.06148 4.06098,10.67045 0,14.73143 L258.816315,739.339783 c-4.06147,4.06147 -10.66996,4.06148 -14.73144,0 L-65.277367,429.977539 c-4.06092,-4.06092 -4.06148,-10.66996 0,-14.73144 L244.084839,105.883888 c4.06098,-4.06099 10.67052,-4.06092 14.73144,0 " id="path15-4" style="fill:#ffdb00;fill-opacity:1;fill-rule:nonzero;stroke:none" inkscape:connector-curvature="0" sodipodi:nodetypes="sssssssss"></path><text stroke="none" style="outline-style:none;" id="text2" stroke-width="1px" x="251.74054px" text-rendering="geometricPrecision" font-family="Arial-BoldMT" fill="#000000" font-size="84pt" y="459.901917px" transform="" text-anchor="middle">CAUTION</text></g><text stroke="none" style="outline-style:none;" id="text1" stroke-width="1px" x="341px" text-rendering="geometricPrecision" font-family="Arial-BoldMT" fill="#000000" font-size="84pt" y="249px" transform="" text-anchor="middle">PRE</text><text stroke="none" style="outline-style:none;" id="text3" stroke-width="1px" x="341px" text-rendering="geometricPrecision" font-family="Arial-BoldMT" fill="#000000" font-size="84pt" y="507px" transform="" text-anchor="middle">ARY</text></svg>